<mxfile host="Electron" agent="Mozilla/5.0 (Macintosh; Intel Mac OS X 10_15_7) AppleWebKit/537.36 (KHTML, like Gecko) draw.io/24.7.17 Chrome/128.0.6613.36 Electron/32.0.1 Safari/537.36" version="24.7.17">
  <diagram name="Страница — 1" id="elxUeTd6T_qAqXD_6Lr1">
    <mxGraphModel dx="1682" dy="643" grid="1" gridSize="10" guides="1" tooltips="1" connect="1" arrows="1" fold="1" page="1" pageScale="1" pageWidth="827" pageHeight="1169" math="0" shadow="0">
      <root>
        <mxCell id="0" />
        <mxCell id="1" parent="0" />
        <mxCell id="I2ir_uBwXBktRRAKuUzZ-19" style="edgeStyle=orthogonalEdgeStyle;rounded=0;orthogonalLoop=1;jettySize=auto;html=1;exitX=1;exitY=0.25;exitDx=0;exitDy=0;entryX=0;entryY=0.25;entryDx=0;entryDy=0;" edge="1" parent="1" source="I2ir_uBwXBktRRAKuUzZ-21" target="I2ir_uBwXBktRRAKuUzZ-24">
          <mxGeometry relative="1" as="geometry" />
        </mxCell>
        <mxCell id="I2ir_uBwXBktRRAKuUzZ-20" value="запрос" style="edgeLabel;html=1;align=center;verticalAlign=middle;resizable=0;points=[];" vertex="1" connectable="0" parent="I2ir_uBwXBktRRAKuUzZ-19">
          <mxGeometry x="0.3826" relative="1" as="geometry">
            <mxPoint x="-19" as="offset" />
          </mxGeometry>
        </mxCell>
        <mxCell id="I2ir_uBwXBktRRAKuUzZ-21" value="клиент" style="rounded=1;whiteSpace=wrap;html=1;" vertex="1" parent="1">
          <mxGeometry x="-30" y="150" width="120" height="60" as="geometry" />
        </mxCell>
        <mxCell id="I2ir_uBwXBktRRAKuUzZ-22" style="edgeStyle=orthogonalEdgeStyle;rounded=0;orthogonalLoop=1;jettySize=auto;html=1;exitX=0;exitY=0.75;exitDx=0;exitDy=0;entryX=1;entryY=0.75;entryDx=0;entryDy=0;" edge="1" parent="1" source="I2ir_uBwXBktRRAKuUzZ-24" target="I2ir_uBwXBktRRAKuUzZ-21">
          <mxGeometry relative="1" as="geometry" />
        </mxCell>
        <mxCell id="I2ir_uBwXBktRRAKuUzZ-23" value="ответ с шумом" style="edgeLabel;html=1;align=center;verticalAlign=middle;resizable=0;points=[];" vertex="1" connectable="0" parent="I2ir_uBwXBktRRAKuUzZ-22">
          <mxGeometry x="-0.2595" y="1" relative="1" as="geometry">
            <mxPoint x="-9" y="-1" as="offset" />
          </mxGeometry>
        </mxCell>
        <mxCell id="I2ir_uBwXBktRRAKuUzZ-24" value="интерфейс ДП /&lt;br&gt;интерфейс БД" style="rounded=0;whiteSpace=wrap;html=1;" vertex="1" parent="1">
          <mxGeometry x="190" y="150" width="120" height="60" as="geometry" />
        </mxCell>
        <mxCell id="I2ir_uBwXBktRRAKuUzZ-25" value="" style="shape=cylinder3;whiteSpace=wrap;html=1;boundedLbl=1;backgroundOutline=1;size=15;" vertex="1" parent="1">
          <mxGeometry x="410" y="140" width="60" height="80" as="geometry" />
        </mxCell>
        <mxCell id="I2ir_uBwXBktRRAKuUzZ-26" value="БД" style="text;html=1;align=center;verticalAlign=middle;resizable=0;points=[];autosize=1;strokeColor=none;fillColor=none;" vertex="1" parent="1">
          <mxGeometry x="420" y="165" width="40" height="30" as="geometry" />
        </mxCell>
        <mxCell id="I2ir_uBwXBktRRAKuUzZ-27" value="" style="endArrow=none;dashed=1;html=1;rounded=0;" edge="1" parent="1">
          <mxGeometry width="50" height="50" relative="1" as="geometry">
            <mxPoint x="330" y="140" as="sourcePoint" />
            <mxPoint x="330" y="220" as="targetPoint" />
          </mxGeometry>
        </mxCell>
        <mxCell id="I2ir_uBwXBktRRAKuUzZ-28" value="логика клиента" style="text;html=1;align=center;verticalAlign=middle;resizable=0;points=[];autosize=1;strokeColor=none;fillColor=none;" vertex="1" parent="1">
          <mxGeometry x="90" y="220" width="110" height="30" as="geometry" />
        </mxCell>
        <mxCell id="I2ir_uBwXBktRRAKuUzZ-29" value="логика доступа к данным" style="text;html=1;align=center;verticalAlign=middle;resizable=0;points=[];autosize=1;strokeColor=none;fillColor=none;" vertex="1" parent="1">
          <mxGeometry x="350" y="220" width="170" height="30" as="geometry" />
        </mxCell>
        <mxCell id="I2ir_uBwXBktRRAKuUzZ-30" style="edgeStyle=orthogonalEdgeStyle;rounded=0;orthogonalLoop=1;jettySize=auto;html=1;exitX=1;exitY=0.25;exitDx=0;exitDy=0;entryX=0.001;entryY=0.316;entryDx=0;entryDy=0;entryPerimeter=0;" edge="1" parent="1" source="I2ir_uBwXBktRRAKuUzZ-24" target="I2ir_uBwXBktRRAKuUzZ-25">
          <mxGeometry relative="1" as="geometry" />
        </mxCell>
        <mxCell id="I2ir_uBwXBktRRAKuUzZ-31" value="запрос" style="edgeLabel;html=1;align=center;verticalAlign=middle;resizable=0;points=[];" vertex="1" connectable="0" parent="I2ir_uBwXBktRRAKuUzZ-30">
          <mxGeometry x="-0.0806" relative="1" as="geometry">
            <mxPoint x="4" as="offset" />
          </mxGeometry>
        </mxCell>
        <mxCell id="I2ir_uBwXBktRRAKuUzZ-32" value="ответ" style="edgeStyle=orthogonalEdgeStyle;rounded=0;orthogonalLoop=1;jettySize=auto;html=1;exitX=0;exitY=0;exitDx=0;exitDy=52.5;exitPerimeter=0;entryX=1.001;entryY=0.717;entryDx=0;entryDy=0;entryPerimeter=0;" edge="1" parent="1" source="I2ir_uBwXBktRRAKuUzZ-25" target="I2ir_uBwXBktRRAKuUzZ-24">
          <mxGeometry x="0.0056" relative="1" as="geometry">
            <mxPoint x="311" y="190" as="targetPoint" />
            <mxPoint as="offset" />
          </mxGeometry>
        </mxCell>
        <mxCell id="I2ir_uBwXBktRRAKuUzZ-33" style="edgeStyle=orthogonalEdgeStyle;rounded=0;orthogonalLoop=1;jettySize=auto;html=1;exitX=1;exitY=0.25;exitDx=0;exitDy=0;entryX=0;entryY=0.25;entryDx=0;entryDy=0;" edge="1" parent="1" source="I2ir_uBwXBktRRAKuUzZ-35" target="I2ir_uBwXBktRRAKuUzZ-66">
          <mxGeometry relative="1" as="geometry">
            <mxPoint x="1130" y="360" as="targetPoint" />
          </mxGeometry>
        </mxCell>
        <mxCell id="I2ir_uBwXBktRRAKuUzZ-34" value="запрос" style="edgeLabel;html=1;align=center;verticalAlign=middle;resizable=0;points=[];" vertex="1" connectable="0" parent="I2ir_uBwXBktRRAKuUzZ-33">
          <mxGeometry x="0.3826" relative="1" as="geometry">
            <mxPoint x="-24" as="offset" />
          </mxGeometry>
        </mxCell>
        <mxCell id="I2ir_uBwXBktRRAKuUzZ-35" value="клиент" style="rounded=1;whiteSpace=wrap;html=1;" vertex="1" parent="1">
          <mxGeometry x="650" y="345" width="120" height="60" as="geometry" />
        </mxCell>
        <mxCell id="I2ir_uBwXBktRRAKuUzZ-36" style="edgeStyle=orthogonalEdgeStyle;rounded=0;orthogonalLoop=1;jettySize=auto;html=1;exitX=0;exitY=0.75;exitDx=0;exitDy=0;entryX=1;entryY=0.75;entryDx=0;entryDy=0;" edge="1" parent="1" source="I2ir_uBwXBktRRAKuUzZ-66" target="I2ir_uBwXBktRRAKuUzZ-35">
          <mxGeometry relative="1" as="geometry" />
        </mxCell>
        <mxCell id="I2ir_uBwXBktRRAKuUzZ-71" value="ответ с шумом" style="edgeLabel;html=1;align=center;verticalAlign=middle;resizable=0;points=[];" vertex="1" connectable="0" parent="I2ir_uBwXBktRRAKuUzZ-36">
          <mxGeometry x="-0.0322" y="1" relative="1" as="geometry">
            <mxPoint as="offset" />
          </mxGeometry>
        </mxCell>
        <mxCell id="I2ir_uBwXBktRRAKuUzZ-38" value="интерфейс ДП" style="rounded=0;whiteSpace=wrap;html=1;" vertex="1" parent="1">
          <mxGeometry x="1110" y="345" width="120" height="60" as="geometry" />
        </mxCell>
        <mxCell id="I2ir_uBwXBktRRAKuUzZ-39" value="" style="shape=cylinder3;whiteSpace=wrap;html=1;boundedLbl=1;backgroundOutline=1;size=15;" vertex="1" parent="1">
          <mxGeometry x="1300" y="335" width="60" height="80" as="geometry" />
        </mxCell>
        <mxCell id="I2ir_uBwXBktRRAKuUzZ-40" value="БД" style="text;html=1;align=center;verticalAlign=middle;resizable=0;points=[];autosize=1;strokeColor=none;fillColor=none;" vertex="1" parent="1">
          <mxGeometry x="1310" y="360" width="40" height="30" as="geometry" />
        </mxCell>
        <mxCell id="I2ir_uBwXBktRRAKuUzZ-41" value="" style="endArrow=none;dashed=1;html=1;rounded=0;" edge="1" parent="1">
          <mxGeometry width="50" height="50" relative="1" as="geometry">
            <mxPoint x="1010" y="320" as="sourcePoint" />
            <mxPoint x="1010" y="440" as="targetPoint" />
          </mxGeometry>
        </mxCell>
        <mxCell id="I2ir_uBwXBktRRAKuUzZ-42" value="логика клиента" style="text;html=1;align=center;verticalAlign=middle;resizable=0;points=[];autosize=1;strokeColor=none;fillColor=none;" vertex="1" parent="1">
          <mxGeometry x="800" y="415" width="110" height="30" as="geometry" />
        </mxCell>
        <mxCell id="I2ir_uBwXBktRRAKuUzZ-43" value="логика доступа к данным" style="text;html=1;align=center;verticalAlign=middle;resizable=0;points=[];autosize=1;strokeColor=none;fillColor=none;" vertex="1" parent="1">
          <mxGeometry x="1085" y="415" width="170" height="30" as="geometry" />
        </mxCell>
        <mxCell id="I2ir_uBwXBktRRAKuUzZ-44" style="edgeStyle=orthogonalEdgeStyle;rounded=0;orthogonalLoop=1;jettySize=auto;html=1;exitX=1;exitY=0.25;exitDx=0;exitDy=0;entryX=0.001;entryY=0.316;entryDx=0;entryDy=0;entryPerimeter=0;" edge="1" parent="1" source="I2ir_uBwXBktRRAKuUzZ-38" target="I2ir_uBwXBktRRAKuUzZ-39">
          <mxGeometry relative="1" as="geometry" />
        </mxCell>
        <mxCell id="I2ir_uBwXBktRRAKuUzZ-45" value="запрос" style="edgeLabel;html=1;align=center;verticalAlign=middle;resizable=0;points=[];" vertex="1" connectable="0" parent="I2ir_uBwXBktRRAKuUzZ-44">
          <mxGeometry x="-0.0806" relative="1" as="geometry">
            <mxPoint x="4" as="offset" />
          </mxGeometry>
        </mxCell>
        <mxCell id="I2ir_uBwXBktRRAKuUzZ-46" value="ответ" style="edgeStyle=orthogonalEdgeStyle;rounded=0;orthogonalLoop=1;jettySize=auto;html=1;exitX=0;exitY=0;exitDx=0;exitDy=52.5;exitPerimeter=0;entryX=1.001;entryY=0.717;entryDx=0;entryDy=0;entryPerimeter=0;" edge="1" parent="1" source="I2ir_uBwXBktRRAKuUzZ-39" target="I2ir_uBwXBktRRAKuUzZ-38">
          <mxGeometry x="0.0056" relative="1" as="geometry">
            <mxPoint x="1201" y="385" as="targetPoint" />
            <mxPoint as="offset" />
          </mxGeometry>
        </mxCell>
        <mxCell id="I2ir_uBwXBktRRAKuUzZ-47" style="edgeStyle=orthogonalEdgeStyle;rounded=0;orthogonalLoop=1;jettySize=auto;html=1;exitX=1;exitY=0.25;exitDx=0;exitDy=0;entryX=0;entryY=0.25;entryDx=0;entryDy=0;" edge="1" parent="1" source="I2ir_uBwXBktRRAKuUzZ-49" target="I2ir_uBwXBktRRAKuUzZ-52">
          <mxGeometry relative="1" as="geometry" />
        </mxCell>
        <mxCell id="I2ir_uBwXBktRRAKuUzZ-48" value="запрос" style="edgeLabel;html=1;align=center;verticalAlign=middle;resizable=0;points=[];" vertex="1" connectable="0" parent="I2ir_uBwXBktRRAKuUzZ-47">
          <mxGeometry x="0.3826" relative="1" as="geometry">
            <mxPoint x="-19" as="offset" />
          </mxGeometry>
        </mxCell>
        <mxCell id="I2ir_uBwXBktRRAKuUzZ-49" value="клиент" style="rounded=1;whiteSpace=wrap;html=1;" vertex="1" parent="1">
          <mxGeometry x="-250" y="350" width="120" height="60" as="geometry" />
        </mxCell>
        <mxCell id="I2ir_uBwXBktRRAKuUzZ-50" style="edgeStyle=orthogonalEdgeStyle;rounded=0;orthogonalLoop=1;jettySize=auto;html=1;exitX=0;exitY=0.75;exitDx=0;exitDy=0;entryX=1;entryY=0.75;entryDx=0;entryDy=0;" edge="1" parent="1" source="I2ir_uBwXBktRRAKuUzZ-52" target="I2ir_uBwXBktRRAKuUzZ-49">
          <mxGeometry relative="1" as="geometry" />
        </mxCell>
        <mxCell id="I2ir_uBwXBktRRAKuUzZ-51" value="ответ с шумом" style="edgeLabel;html=1;align=center;verticalAlign=middle;resizable=0;points=[];" vertex="1" connectable="0" parent="I2ir_uBwXBktRRAKuUzZ-50">
          <mxGeometry x="-0.2595" y="1" relative="1" as="geometry">
            <mxPoint x="-9" y="-1" as="offset" />
          </mxGeometry>
        </mxCell>
        <mxCell id="I2ir_uBwXBktRRAKuUzZ-52" value="интерфейс ДП" style="rounded=0;whiteSpace=wrap;html=1;" vertex="1" parent="1">
          <mxGeometry x="-30" y="350" width="120" height="60" as="geometry" />
        </mxCell>
        <mxCell id="I2ir_uBwXBktRRAKuUzZ-53" value="" style="shape=cylinder3;whiteSpace=wrap;html=1;boundedLbl=1;backgroundOutline=1;size=15;" vertex="1" parent="1">
          <mxGeometry x="390" y="340" width="60" height="80" as="geometry" />
        </mxCell>
        <mxCell id="I2ir_uBwXBktRRAKuUzZ-54" value="БД" style="text;html=1;align=center;verticalAlign=middle;resizable=0;points=[];autosize=1;strokeColor=none;fillColor=none;" vertex="1" parent="1">
          <mxGeometry x="400" y="365" width="40" height="30" as="geometry" />
        </mxCell>
        <mxCell id="I2ir_uBwXBktRRAKuUzZ-55" value="" style="endArrow=none;dashed=1;html=1;rounded=0;" edge="1" parent="1">
          <mxGeometry width="50" height="50" relative="1" as="geometry">
            <mxPoint x="310" y="330" as="sourcePoint" />
            <mxPoint x="310" y="430" as="targetPoint" />
          </mxGeometry>
        </mxCell>
        <mxCell id="I2ir_uBwXBktRRAKuUzZ-56" value="логика клиента" style="text;html=1;align=center;verticalAlign=middle;resizable=0;points=[];autosize=1;strokeColor=none;fillColor=none;" vertex="1" parent="1">
          <mxGeometry x="-25" y="430" width="110" height="30" as="geometry" />
        </mxCell>
        <mxCell id="I2ir_uBwXBktRRAKuUzZ-57" value="логика доступа к данным" style="text;html=1;align=center;verticalAlign=middle;resizable=0;points=[];autosize=1;strokeColor=none;fillColor=none;" vertex="1" parent="1">
          <mxGeometry x="335" y="430" width="170" height="30" as="geometry" />
        </mxCell>
        <mxCell id="I2ir_uBwXBktRRAKuUzZ-58" style="edgeStyle=orthogonalEdgeStyle;rounded=0;orthogonalLoop=1;jettySize=auto;html=1;exitX=1;exitY=0.25;exitDx=0;exitDy=0;entryX=0;entryY=0.25;entryDx=0;entryDy=0;" edge="1" parent="1" source="I2ir_uBwXBktRRAKuUzZ-52" target="I2ir_uBwXBktRRAKuUzZ-61">
          <mxGeometry relative="1" as="geometry" />
        </mxCell>
        <mxCell id="I2ir_uBwXBktRRAKuUzZ-59" value="запрос" style="edgeLabel;html=1;align=center;verticalAlign=middle;resizable=0;points=[];" vertex="1" connectable="0" parent="I2ir_uBwXBktRRAKuUzZ-58">
          <mxGeometry x="-0.0806" relative="1" as="geometry">
            <mxPoint x="4" as="offset" />
          </mxGeometry>
        </mxCell>
        <mxCell id="I2ir_uBwXBktRRAKuUzZ-60" value="ответ" style="edgeStyle=orthogonalEdgeStyle;rounded=0;orthogonalLoop=1;jettySize=auto;html=1;entryX=1;entryY=0.75;entryDx=0;entryDy=0;exitX=0;exitY=0.75;exitDx=0;exitDy=0;" edge="1" parent="1" source="I2ir_uBwXBktRRAKuUzZ-61" target="I2ir_uBwXBktRRAKuUzZ-52">
          <mxGeometry x="0.0056" relative="1" as="geometry">
            <mxPoint x="291" y="390" as="targetPoint" />
            <mxPoint as="offset" />
            <mxPoint x="170" y="403" as="sourcePoint" />
          </mxGeometry>
        </mxCell>
        <mxCell id="I2ir_uBwXBktRRAKuUzZ-63" value="" style="edgeStyle=orthogonalEdgeStyle;rounded=0;orthogonalLoop=1;jettySize=auto;html=1;exitX=0;exitY=0;exitDx=0;exitDy=52.5;exitPerimeter=0;entryX=1.001;entryY=0.717;entryDx=0;entryDy=0;entryPerimeter=0;" edge="1" parent="1" source="I2ir_uBwXBktRRAKuUzZ-53" target="I2ir_uBwXBktRRAKuUzZ-61">
          <mxGeometry x="0.0056" relative="1" as="geometry">
            <mxPoint x="90" y="393" as="targetPoint" />
            <mxPoint as="offset" />
            <mxPoint x="390" y="393" as="sourcePoint" />
          </mxGeometry>
        </mxCell>
        <mxCell id="I2ir_uBwXBktRRAKuUzZ-65" value="ответ" style="edgeLabel;html=1;align=center;verticalAlign=middle;resizable=0;points=[];" vertex="1" connectable="0" parent="I2ir_uBwXBktRRAKuUzZ-63">
          <mxGeometry x="-0.0852" y="-1" relative="1" as="geometry">
            <mxPoint x="-4" y="-1" as="offset" />
          </mxGeometry>
        </mxCell>
        <mxCell id="I2ir_uBwXBktRRAKuUzZ-61" value="интерфейс БД" style="rounded=0;whiteSpace=wrap;html=1;" vertex="1" parent="1">
          <mxGeometry x="170" y="350" width="120" height="60" as="geometry" />
        </mxCell>
        <mxCell id="I2ir_uBwXBktRRAKuUzZ-64" value="запрос" style="edgeStyle=orthogonalEdgeStyle;rounded=0;orthogonalLoop=1;jettySize=auto;html=1;exitX=0.992;exitY=0.295;exitDx=0;exitDy=0;entryX=0;entryY=0;entryDx=0;entryDy=27.5;entryPerimeter=0;exitPerimeter=0;" edge="1" parent="1" source="I2ir_uBwXBktRRAKuUzZ-61" target="I2ir_uBwXBktRRAKuUzZ-53">
          <mxGeometry relative="1" as="geometry" />
        </mxCell>
        <mxCell id="I2ir_uBwXBktRRAKuUzZ-67" value="" style="edgeStyle=orthogonalEdgeStyle;rounded=0;orthogonalLoop=1;jettySize=auto;html=1;exitX=0;exitY=0.75;exitDx=0;exitDy=0;entryX=1;entryY=0.75;entryDx=0;entryDy=0;" edge="1" parent="1" source="I2ir_uBwXBktRRAKuUzZ-38" target="I2ir_uBwXBktRRAKuUzZ-66">
          <mxGeometry relative="1" as="geometry">
            <mxPoint x="1130" y="390" as="sourcePoint" />
            <mxPoint x="800" y="390" as="targetPoint" />
          </mxGeometry>
        </mxCell>
        <mxCell id="I2ir_uBwXBktRRAKuUzZ-68" value="ответ с шумом" style="edgeLabel;html=1;align=center;verticalAlign=middle;resizable=0;points=[];" vertex="1" connectable="0" parent="I2ir_uBwXBktRRAKuUzZ-67">
          <mxGeometry x="-0.2595" y="1" relative="1" as="geometry">
            <mxPoint x="-8" y="-1" as="offset" />
          </mxGeometry>
        </mxCell>
        <mxCell id="I2ir_uBwXBktRRAKuUzZ-69" style="edgeStyle=orthogonalEdgeStyle;rounded=0;orthogonalLoop=1;jettySize=auto;html=1;exitX=1;exitY=0.25;exitDx=0;exitDy=0;entryX=0;entryY=0.25;entryDx=0;entryDy=0;" edge="1" parent="1" source="I2ir_uBwXBktRRAKuUzZ-66" target="I2ir_uBwXBktRRAKuUzZ-38">
          <mxGeometry relative="1" as="geometry" />
        </mxCell>
        <mxCell id="I2ir_uBwXBktRRAKuUzZ-70" value="запрос" style="edgeLabel;html=1;align=center;verticalAlign=middle;resizable=0;points=[];" vertex="1" connectable="0" parent="I2ir_uBwXBktRRAKuUzZ-69">
          <mxGeometry x="0.0927" y="-4" relative="1" as="geometry">
            <mxPoint x="1" y="-4" as="offset" />
          </mxGeometry>
        </mxCell>
        <mxCell id="I2ir_uBwXBktRRAKuUzZ-66" value="интерфейс БД" style="rounded=0;whiteSpace=wrap;html=1;" vertex="1" parent="1">
          <mxGeometry x="877" y="345" width="120" height="60" as="geometry" />
        </mxCell>
      </root>
    </mxGraphModel>
  </diagram>
</mxfile>
